<?xml version="1.0" encoding="UTF-8"?>
<svg width="128px" height="68px" viewBox="0 0 128 68" version="1.1" xmlns="http://www.w3.org/2000/svg" xmlns:xlink="http://www.w3.org/1999/xlink">
    <!-- Generator: Sketch 46.2 (44496) - http://www.bohemiancoding.com/sketch -->
    <title>layout_title_top</title>
    <desc>Created with Sketch.</desc>
    <defs>
        <rect id="path-1" x="0" y="0" width="128" height="68"></rect>
        <mask id="mask-2" maskContentUnits="userSpaceOnUse" maskUnits="objectBoundingBox" x="0" y="0" width="128" height="68" fill="white">
            <use xlink:href="#path-1"></use>
        </mask>
    </defs>
    <g id="Page-1" stroke="none" stroke-width="1" fill="none" fill-rule="evenodd">
        <g id="layout_title_top">
            <use id="Rectangle-87" stroke-opacity="0.7" stroke="#F4B400" mask="url(#mask-2)" stroke-width="4" fill="#FFFFFF" stroke-dasharray="4,2" xlink:href="#path-1"></use>
            <path d="M8,20 L68,20 L68,60 L8,60 L8,20 Z M51.1877961,29.061243 C49.448939,28.856334 47.9146533,30.085788 47.7100819,31.7250601 C47.6077961,32.1348781 47.7100819,32.5446961 47.8123676,32.8520596 C48.1192247,34.0815136 49.1420818,35.0036041 50.4717961,35.1060586 L50.7786532,35.1060586 C52.3129389,35.1060586 53.7449389,33.9790591 53.9495103,32.3397871 C54.1540817,30.8029696 52.9266532,29.266152 51.1877961,29.061243 Z M52.5522226,49.5830065 L51.3372127,48.0806083 L48.5651648,44.8081359 L45.1731259,40.6827736 L44.8061257,40.211716 C44.565621,39.9315745 44.1220696,39.676364 43.7159765,39.726226 C43.3098833,39.7760879 42.9162762,39.9276407 42.6491645,40.2701097 L41.669755,41.5258291 C41.6822411,41.6275199 41.5807178,41.6399854 41.4791945,41.6524509 C41.288634,41.7790727 41.0980735,41.9056945 40.9075129,42.0323163 L40.5014198,42.0821783 C40.0953266,42.1320403 39.7657846,41.9660551 39.5252799,41.6859136 C39.4112705,41.5966883 39.3987844,41.4949975 39.2847751,41.4057722 L35.4242127,36.8218177 C35.0696986,36.4524509 34.5121379,36.1080151 34.0045215,36.1703426 C33.3828957,36.1434447 32.9002513,36.4091538 32.5441024,36.8657791 L23.2218005,48.2295815 L22.4079794,49.1552975 L22.2299049,49.3836101 C22.1533538,49.5994572 22.0768026,49.8153044 22.0002514,50.0311515 C21.9861306,50.7554527 22.5686634,51.3032702 23.2793264,51.2160118 L26.1594367,51.1720504 L27.0856324,51.1615518 L27.288679,51.1366208 L30.1687893,51.0926595 L35.5229168,51.0545988 L37.692364,51.0978959 L38.4155131,51.1123283 L38.6185597,51.0873973 L42.526389,51.0204719 L44.7973595,51.0513035 L48.8191982,51.0736034 L49.0222447,51.0486724 L50.3670196,51.0900026 L51.9148411,51.1064019 C52.4349436,51.1457652 52.8926158,50.6766745 52.8301855,50.1682204 C52.8052134,49.9648388 52.7802413,49.7614571 52.6662319,49.6722318 L52.5522226,49.5830065 Z" id="Combined-Shape" fill="#BDBDBD" opacity="0.9"></path>
            <rect id="Rectangle-39" fill="#BDBDBD" opacity="0.9" x="25" y="8" width="76" height="6"></rect>
            <rect id="Rectangle-39" fill="#BDBDBD" opacity="0.9" x="76" y="32" width="44" height="6"></rect>
            <rect id="Rectangle-39" fill="#BDBDBD" opacity="0.9" x="76" y="20" width="44" height="6"></rect>
            <rect id="Rectangle-39" fill="#BDBDBD" opacity="0.9" x="76" y="44" width="24" height="6"></rect>
            <g id="ad-badge">
                <rect id="Rectangle-1166" fill="#F09300" x="0" y="0" width="19" height="15"></rect>
                <text id="Ad" font-family="Roboto-Bold, Roboto" font-size="10" font-weight="bold" fill="#FFFFFF">
                    <tspan x="3.31835938" y="10">Ad</tspan>
                </text>
            </g>
        </g>
    </g>
</svg>