<?xml version="1.0" encoding="UTF-8"?>
<svg width="128px" height="48px" viewBox="0 0 128 48" version="1.1" xmlns="http://www.w3.org/2000/svg" xmlns:xlink="http://www.w3.org/1999/xlink">
    <title>layout_img_only</title>
    <desc>Created with Sketch.</desc>
    <defs>
        <rect id="path-1" x="0" y="0" width="128" height="48"></rect>
        <mask id="mask-2" maskContentUnits="userSpaceOnUse" maskUnits="objectBoundingBox" x="0" y="0" width="128" height="48" fill="white">
            <use xlink:href="#path-1"></use>
        </mask>
    </defs>
    <g id="Page-1" stroke="none" stroke-width="1" fill="none" fill-rule="evenodd">
        <g id="layout_img_above">
            <use id="Rectangle-87" stroke-opacity="0.7" stroke="#F4B400" mask="url(#mask-2)" stroke-width="4" fill="#FFFFFF" stroke-dasharray="4,2" xlink:href="#path-1"></use>
            <path d="M8,8 L120,8 L120,40 L8,40 L8,8 Z M77.1877961,13.061243 C75.448939,12.856334 73.9146533,14.085788 73.7100819,15.7250601 C73.6077961,16.1348781 73.7100819,16.5446961 73.8123676,16.8520596 C74.1192247,18.0815136 75.1420818,19.0036041 76.4717961,19.1060586 L76.7786532,19.1060586 C78.3129389,19.1060586 79.7449389,17.9790591 79.9495103,16.3397871 C80.1540817,14.8029696 78.9266532,13.266152 77.1877961,13.061243 Z M78.5522226,33.5830065 L77.3372127,32.0806083 L74.5651648,28.8081359 L71.1731259,24.6827736 L70.8061257,24.211716 C70.565621,23.9315745 70.1220696,23.676364 69.7159765,23.726226 C69.3098833,23.7760879 68.9162762,23.9276407 68.6491645,24.2701097 L67.669755,25.5258291 C67.6822411,25.6275199 67.5807178,25.6399854 67.4791945,25.6524509 C67.288634,25.7790727 67.0980735,25.9056945 66.9075129,26.0323163 L66.5014198,26.0821783 C66.0953266,26.1320403 65.7657846,25.9660551 65.5252799,25.6859136 C65.4112705,25.5966883 65.3987844,25.4949975 65.2847751,25.4057722 L61.4242127,20.8218177 C61.0696986,20.4524509 60.5121379,20.1080151 60.0045215,20.1703426 C59.3828957,20.1434447 58.9002513,20.4091538 58.5441024,20.8657791 L49.2218005,32.2295815 L48.4079794,33.1552975 L48.2299049,33.3836101 C48.1533538,33.5994572 48.0768026,33.8153044 48.0002514,34.0311515 C47.9861306,34.7554527 48.5686634,35.3032702 49.2793264,35.2160118 L52.1594367,35.1720504 L53.0856324,35.1615518 L53.288679,35.1366208 L56.1687893,35.0926595 L61.5229168,35.0545988 L63.692364,35.0978959 L64.4155131,35.1123283 L64.6185597,35.0873973 L68.526389,35.0204719 L70.7973595,35.0513035 L74.8191982,35.0736034 L75.0222447,35.0486724 L76.3670196,35.0900026 L77.9148411,35.1064019 C78.4349436,35.1457652 78.8926158,34.6766745 78.8301855,34.1682204 C78.8052134,33.9648388 78.7802413,33.7614571 78.6662319,33.6722318 L78.5522226,33.5830065 Z" id="Combined-Shape" fill="#BDBDBD" opacity="0.9"></path>
            <g id="ad-badge" transform="translate(0.000000, 0.070423)">
                <rect id="Rectangle-1166" fill="#F09300" x="0" y="0" width="19" height="15"></rect>
                <text id="Ad" font-family="Roboto-Bold, Roboto" font-size="10" font-weight="bold" fill="#FFFFFF">
                    <tspan x="3.31835938" y="10">Ad</tspan>
                </text>
            </g>
            <rect id="Rectangle-39" fill="#BDBDBD" opacity="0.9" x="8" y="58" width="64" height="6"></rect>
        </g>
    </g>
</svg>
